{"title":"[wakaRIP]Mahouka Koukou no Rettousei 14 HD VOSTFR","uid":10498283,"size":322041954,"categoryP":"video","categoryS":"hd___tv_shows","magnet":"?xt=urn:btih:ebd94e42db255654e49f9b8f4e208d2b5c7a164e&amp;dn=%5BwakaRIP%5DMahouka+Koukou+no+Rettousei+14+HD+VOSTFR&amp;tr=udp%3A%2F%2Ftracker.openbittorrent.com%3A80&amp;tr=udp%3A%2F%2Fopen.demonii.com%3A1337&amp;tr=udp%3A%2F%2Ftracker.coppersurfer.tk%3A6969&amp;tr=udp%3A%2F%2Fexodus.desync.com%3A6969","seeders":3,"leechers":0,"uploader":"wakaRIP","files":-1,"time":1404660095,"description":"&quot;[...] We do not forgive. We do not forget. [...]&quot;\n\n20% again... and for those who are seeking for the meaning of this number, note that once it reaches 100%... the &quot;world of anime simulcast&quot; will either radically change or die.\n\n\nGeneral\nComplete name                            : [wakaRIP]Mahouka14_HD.mp4\nFormat                                   : MPEG-4\nFormat profile                           : Base Media\nCodec ID                                 : isom\nFile size                                : 307 MiB\nDuration                                 : 23mn 41s\nOverall bit rate                         : 1 812 Kbps\nMovie name                               : [wakaRIP]Mahouka14_HD\nWriting application                      : Lavf55.45.100\n\nVideo\nID                                       : 1\nFormat                                   : AVC\nFormat/Info                              : Advanced Video Codec\nFormat profile                           : &lt;a class=&quot;__cf_email__&quot; href=&quot;/cdn-cgi/l/email-protection&quot; data-cfemail=&quot;7436150711181d1a113438475a45&quot;&gt;[email&amp;#160;protected]&lt;/a&gt;&lt;script cf-hash='f9e31' type=&quot;text/javascript&quot;&gt;\n/* &lt;![CDATA[ */!function(){try{var t=&quot;currentScript&quot;in document?document.currentScript:function(){for(var t=document.getElementsByTagName(&quot;script&quot;),e=t.length;e--;)if(t[e].getAttribute(&quot;cf-hash&quot;))return t[e]}();if(t&amp;&amp;t.previousSibling){var e,r,n,i,c=t.previousSibling,a=c.getAttribute(&quot;data-cfemail&quot;);if(a){for(e=&quot;&quot;,r=parseInt(a.substr(0,2),16),n=2;a.length-n;n+=2)i=parseInt(a.substr(n,2),16)^r,e+=String.fromCharCode(i);e=document.createTextNode(e),c.parentNode.replaceChild(e,c)}}}catch(u){}}();/* ]]&gt; */&lt;/script&gt;\nFormat settings, CABAC                   : No\nFormat settings, ReFrames                : 3 frames\nCodec ID                                 : avc1\nCodec ID/Info                            : Advanced Video Coding\nDuration                                 : 23mn 41s\nBit rate                                 : 1 600 Kbps\nWidth                                    : 1 024 pixels\nHeight                                   : 576 pixels\nDisplay aspect ratio                     : 16:9\nFrame rate mode                          : Variable\nFrame rate                               : 24.000 fps\nMinimum frame rate                       : 3.429 fps\nMaximum frame rate                       : 90 000.000 fps (&lt;---------- WTF !?)\nColor space                              : YUV\nChroma subsampling                       : 4:2:0\nBit depth                                : 8 bits\nScan type                                : Progressive\nBits/(Pixel*Frame)                       : 0.113\nStream size                              : 285 MiB (93%)\nWriting library                          : x264 core 140 r2377 1ca7bb9\nEncoding settings                        : cabac=0 / ref=3 / deblock=1:0:0 / analyse=0x1:0x111 / me=hex / subme=7 / psy=1 / psy_rd=1.00:0.00 / mixed_ref=1 / me_range=16 / chroma_me=1 / trellis=1 / 8x8dct=0 / cqm=0 / deadzone=21,11 / fast_pskip=1 / chroma_qp_offset=-2 / threads=12 / lookahead_threads=2 / sliced_threads=0 / nr=0 / decimate=1 / interlaced=0 / bluray_compat=0 / constrained_intra=0 / bframes=0 / weightp=0 / keyint=250 / keyint_min=24 / scenecut=40 / intra_refresh=0 / rc_lookahead=40 / rc=abr / mbtree=1 / bitrate=1600 / ratetol=1.0 / qcomp=0.60 / qpmin=0 / qpmax=69 / qpstep=4 / ip_ratio=1.40 / aq=1:1.00\n\nAudio\nID                                       : 2\nFormat                                   : AAC\nFormat/Info                              : Advanced Audio Codec\nFormat profile                           : LC\nCodec ID                                 : 40\nDuration                                 : 23mn 41s\nBit rate mode                            : Constant\nBit rate                                 : 128 Kbps\nChannel count                            : 2 channels\nChannel positions                        : Front: L R\nSampling rate                            : 48.0 KHz\nCompression mode                         : Lossy\nStream size                              : 21.7 MiB (7%)","torrent":{"xt":"urn:btih:ebd94e42db255654e49f9b8f4e208d2b5c7a164e","amp;dn":"%5BwakaRIP%5DMahouka+Koukou+no+Rettousei+14+HD+VOSTFR","amp;tr":["udp%3A%2F%2Ftracker.openbittorrent.com%3A80","udp%3A%2F%2Fopen.demonii.com%3A1337","udp%3A%2F%2Ftracker.coppersurfer.tk%3A6969","udp%3A%2F%2Fexodus.desync.com%3A6969"],"infoHash":"ebd94e42db255654e49f9b8f4e208d2b5c7a164e","infoHashBuffer":{"type":"Buffer","data":[235,217,78,66,219,37,86,84,228,159,155,143,78,32,141,43,92,122,22,78]},"announce":[],"urlList":[]}}